<?xml version="1.0" encoding="us-ascii" standalone="no"?><svg xmlns="http://www.w3.org/2000/svg" xmlns:xlink="http://www.w3.org/1999/xlink" contentStyleType="text/css" height="202px" preserveAspectRatio="none" style="width:345px;height:202px;background:#FFFFFF;" version="1.1" viewBox="0 0 345 202" width="345px" zoomAndPan="magnify"><defs><filter height="300%" id="f1b21iduvgf2l6" width="300%" x="-1" y="-1"><feGaussianBlur result="blurOut" stdDeviation="2.0"/><feColorMatrix in="blurOut" result="blurOut2" type="matrix" values="0 0 0 0 0 0 0 0 0 0 0 0 0 0 0 0 0 0 .4 0"/><feOffset dx="4.0" dy="4.0" in="blurOut2" result="blurOut3"/><feBlend in="SourceGraphic" in2="blurOut3" mode="normal"/></filter></defs><g><!--class Person--><g id="elem_Person"><rect codeLine="5" fill="#FFF1D9" filter="url(#f1b21iduvgf2l6)" height="181.4754" id="Person" rx="5" ry="5" style="stroke:#181818;stroke-width:0.5;" width="147" x="184.5" y="7"/><rect fill="#FFD080" height="32" rx="5" ry="5" style="stroke:#FFD080;stroke-width:0.5;" width="147" x="184.5" y="7"/><rect fill="#FFD080" height="5" style="stroke:#FFD080;stroke-width:0.5;" width="147" x="184.5" y="34"/><rect codeLine="5" fill="none" height="181.4754" id="Person" rx="5" ry="5" style="stroke:#181818;stroke-width:0.5;" width="147" x="184.5" y="7"/><ellipse cx="230.75" cy="23" fill="#ADD1B2" rx="11" ry="11" style="stroke:#181818;stroke-width:1.0;"/><path d="M230.8594,18.5313 Q229.9375,18.5313 229.2031,18.8438 Q228.4844,19.1563 227.9844,19.75 Q227.4844,20.3281 227.2031,21.2031 Q226.9375,22.0781 226.9375,23.1719 Q226.9375,24.6094 227.375,25.6563 Q227.8281,26.7031 228.6719,27.25 Q229.5313,27.7969 230.8438,27.7969 Q231.625,27.7969 232.3125,27.6719 Q233.0156,27.5313 234.0156,27.2188 L234.0156,29.0938 Q233.1563,29.4219 232.3906,29.5469 Q231.6406,29.6719 230.625,29.6719 Q228.7031,29.6719 227.3906,28.875 Q226.0938,28.0625 225.4375,26.5938 Q224.7813,25.1094 224.7813,23.1406 Q224.7813,21.7188 225.1719,20.5469 Q225.5781,19.3594 226.3594,18.4844 Q227.1406,17.6094 228.2813,17.1406 Q229.4219,16.6563 230.8906,16.6563 Q231.8438,16.6563 232.7344,16.8594 Q233.6406,17.0469 234.5781,17.5156 L233.75,19.2969 Q232.9688,18.9219 232.3125,18.7344 Q231.6563,18.5313 230.8594,18.5313 Z " fill="#000000"/><text fill="#000000" font-family="sans-serif" font-size="14" lengthAdjust="spacing" textLength="46" x="251.25" y="28.432">Person</text><line style="stroke:#181818;stroke-width:0.5;" x1="185.5" x2="330.5" y1="39" y2="39"/><text fill="#000000" font-family="sans-serif" font-size="14" lengthAdjust="spacing" textLength="60" x="190.5" y="57.9659">sn:string</text><text fill="#000000" font-family="sans-serif" font-size="14" lengthAdjust="spacing" textLength="119" x="190.5" y="77.0339">givenname:string</text><text fill="#000000" font-family="sans-serif" font-size="14" lengthAdjust="spacing" textLength="112" x="190.5" y="96.1018">username:string</text><text fill="#000000" font-family="sans-serif" font-size="14" lengthAdjust="spacing" textLength="97" x="190.5" y="115.1697">birthdate:date</text><text fill="#000000" font-family="sans-serif" font-size="14" lengthAdjust="spacing" textLength="67" x="190.5" y="134.2376">city:string</text><text fill="#000000" font-family="sans-serif" font-size="14" lengthAdjust="spacing" textLength="97" x="190.5" y="153.3055">active:boolean</text><text fill="#000000" font-family="sans-serif" font-size="14" lengthAdjust="spacing" textLength="135" x="190.5" y="172.3734">category:belongs_to</text><line style="stroke:#181818;stroke-width:0.5;" x1="185.5" x2="330.5" y1="180.4754" y2="180.4754"/></g><!--class Category--><g id="elem_Category"><rect codeLine="15" fill="#FFF1D9" filter="url(#f1b21iduvgf2l6)" height="67.0679" id="Category" rx="5" ry="5" style="stroke:#181818;stroke-width:0.5;" width="94" x="7" y="64"/><rect fill="#FFD080" height="32" rx="5" ry="5" style="stroke:#FFD080;stroke-width:0.5;" width="94" x="7" y="64"/><rect fill="#FFD080" height="5" style="stroke:#FFD080;stroke-width:0.5;" width="94" x="7" y="91"/><rect codeLine="15" fill="none" height="67.0679" id="Category" rx="5" ry="5" style="stroke:#181818;stroke-width:0.5;" width="94" x="7" y="64"/><ellipse cx="22.9" cy="80" fill="#ADD1B2" rx="11" ry="11" style="stroke:#181818;stroke-width:1.0;"/><path d="M23.0094,75.5313 Q22.0875,75.5313 21.3531,75.8438 Q20.6344,76.1563 20.1344,76.75 Q19.6344,77.3281 19.3531,78.2031 Q19.0875,79.0781 19.0875,80.1719 Q19.0875,81.6094 19.525,82.6563 Q19.9781,83.7031 20.8219,84.25 Q21.6813,84.7969 22.9938,84.7969 Q23.775,84.7969 24.4625,84.6719 Q25.1656,84.5313 26.1656,84.2188 L26.1656,86.0938 Q25.3063,86.4219 24.5406,86.5469 Q23.7906,86.6719 22.775,86.6719 Q20.8531,86.6719 19.5406,85.875 Q18.2438,85.0625 17.5875,83.5938 Q16.9313,82.1094 16.9313,80.1406 Q16.9313,78.7188 17.3219,77.5469 Q17.7281,76.3594 18.5094,75.4844 Q19.2906,74.6094 20.4313,74.1406 Q21.5719,73.6563 23.0406,73.6563 Q23.9938,73.6563 24.8844,73.8594 Q25.7906,74.0469 26.7281,74.5156 L25.9,76.2969 Q25.1188,75.9219 24.4625,75.7344 Q23.8063,75.5313 23.0094,75.5313 Z " fill="#000000"/><text fill="#000000" font-family="sans-serif" font-size="14" lengthAdjust="spacing" textLength="60" x="37.1" y="85.432">Category</text><line style="stroke:#181818;stroke-width:0.5;" x1="8" x2="100" y1="96" y2="96"/><text fill="#000000" font-family="sans-serif" font-size="14" lengthAdjust="spacing" textLength="82" x="13" y="114.9659">name:string</text><line style="stroke:#181818;stroke-width:0.5;" x1="8" x2="100" y1="123.0679" y2="123.0679"/></g><!--link Category to Person--><g id="link_Category_Person"><path codeLine="19" d="M100.84,97.5 C125.63,97.5 156.82,97.5 184.8,97.5 " fill="none" id="Category-Person" style="stroke:#181818;stroke-width:1.0;"/><text fill="#000000" font-family="sans-serif" font-size="13" lengthAdjust="spacing" textLength="7" x="108.7381" y="91.5848">1</text><text fill="#000000" font-family="sans-serif" font-size="13" lengthAdjust="spacing" textLength="7" x="169.4109" y="93.4799">*</text></g><!--SRC=[LOv12i9034NtSueuIq71xMozW3UGQHkd0zEa9B5GnBixbMfr4px_VSWp7i4O6ZRZ0Reis5fcScvdFGu84dFHCS5DAZuUdMjBL8KBYZB1mm4e1JN9b6fEUKAYEE1MtHNblscoMDz5mx2SMhJPvWt7AZ1XQ9WBHbfmNIMMEJHOc99UZTtp8t9UuLlbzqzTV9a_UJY0t_lLsxq0]--></g></svg>