<?xml version="1.0" encoding="us-ascii" standalone="no"?><svg xmlns="http://www.w3.org/2000/svg" xmlns:xlink="http://www.w3.org/1999/xlink" contentStyleType="text/css" height="407px" preserveAspectRatio="none" style="width:528px;height:407px;background:#FFFFFF;" version="1.1" viewBox="0 0 528 407" width="528px" zoomAndPan="magnify"><defs><filter height="300%" id="fuz8dtty81gd0" width="300%" x="-1" y="-1"><feGaussianBlur result="blurOut" stdDeviation="2.0"/><feColorMatrix in="blurOut" result="blurOut2" type="matrix" values="0 0 0 0 0 0 0 0 0 0 0 0 0 0 0 0 0 0 .4 0"/><feOffset dx="4.0" dy="4.0" in="blurOut2" result="blurOut3"/><feBlend in="SourceGraphic" in2="blurOut3" mode="normal"/></filter></defs><g><!--class Person--><g id="elem_Person"><rect codeLine="5" fill="#FFF1D9" filter="url(#fuz8dtty81gd0)" height="181.4754" id="Person" rx="5" ry="5" style="stroke:#181818;stroke-width:0.5;" width="147" x="184.5" y="7"/><rect fill="#FFD080" height="32" rx="5" ry="5" style="stroke:#FFD080;stroke-width:0.5;" width="147" x="184.5" y="7"/><rect fill="#FFD080" height="5" style="stroke:#FFD080;stroke-width:0.5;" width="147" x="184.5" y="34"/><rect codeLine="5" fill="none" height="181.4754" id="Person" rx="5" ry="5" style="stroke:#181818;stroke-width:0.5;" width="147" x="184.5" y="7"/><ellipse cx="230.75" cy="23" fill="#ADD1B2" rx="11" ry="11" style="stroke:#181818;stroke-width:1.0;"/><path d="M230.8594,18.5313 Q229.9375,18.5313 229.2031,18.8438 Q228.4844,19.1563 227.9844,19.75 Q227.4844,20.3281 227.2031,21.2031 Q226.9375,22.0781 226.9375,23.1719 Q226.9375,24.6094 227.375,25.6563 Q227.8281,26.7031 228.6719,27.25 Q229.5313,27.7969 230.8438,27.7969 Q231.625,27.7969 232.3125,27.6719 Q233.0156,27.5313 234.0156,27.2188 L234.0156,29.0938 Q233.1563,29.4219 232.3906,29.5469 Q231.6406,29.6719 230.625,29.6719 Q228.7031,29.6719 227.3906,28.875 Q226.0938,28.0625 225.4375,26.5938 Q224.7813,25.1094 224.7813,23.1406 Q224.7813,21.7188 225.1719,20.5469 Q225.5781,19.3594 226.3594,18.4844 Q227.1406,17.6094 228.2813,17.1406 Q229.4219,16.6563 230.8906,16.6563 Q231.8438,16.6563 232.7344,16.8594 Q233.6406,17.0469 234.5781,17.5156 L233.75,19.2969 Q232.9688,18.9219 232.3125,18.7344 Q231.6563,18.5313 230.8594,18.5313 Z " fill="#000000"/><text fill="#000000" font-family="sans-serif" font-size="14" lengthAdjust="spacing" textLength="46" x="251.25" y="28.432">Person</text><line style="stroke:#181818;stroke-width:0.5;" x1="185.5" x2="330.5" y1="39" y2="39"/><text fill="#000000" font-family="sans-serif" font-size="14" lengthAdjust="spacing" textLength="60" x="190.5" y="57.9659">sn:string</text><text fill="#000000" font-family="sans-serif" font-size="14" lengthAdjust="spacing" textLength="119" x="190.5" y="77.0339">givenname:string</text><text fill="#000000" font-family="sans-serif" font-size="14" lengthAdjust="spacing" textLength="112" x="190.5" y="96.1018">username:string</text><text fill="#000000" font-family="sans-serif" font-size="14" lengthAdjust="spacing" textLength="97" x="190.5" y="115.1697">birthdate:date</text><text fill="#000000" font-family="sans-serif" font-size="14" lengthAdjust="spacing" textLength="67" x="190.5" y="134.2376">city:string</text><text fill="#000000" font-family="sans-serif" font-size="14" lengthAdjust="spacing" textLength="97" x="190.5" y="153.3055">active:boolean</text><text fill="#000000" font-family="sans-serif" font-size="14" lengthAdjust="spacing" textLength="135" x="190.5" y="172.3734">category:belongs_to</text><line style="stroke:#181818;stroke-width:0.5;" x1="185.5" x2="330.5" y1="180.4754" y2="180.4754"/></g><!--class Category--><g id="elem_Category"><rect codeLine="15" fill="#FFF1D9" filter="url(#fuz8dtty81gd0)" height="67.0679" id="Category" rx="5" ry="5" style="stroke:#181818;stroke-width:0.5;" width="94" x="7" y="64"/><rect fill="#FFD080" height="32" rx="5" ry="5" style="stroke:#FFD080;stroke-width:0.5;" width="94" x="7" y="64"/><rect fill="#FFD080" height="5" style="stroke:#FFD080;stroke-width:0.5;" width="94" x="7" y="91"/><rect codeLine="15" fill="none" height="67.0679" id="Category" rx="5" ry="5" style="stroke:#181818;stroke-width:0.5;" width="94" x="7" y="64"/><ellipse cx="22.9" cy="80" fill="#ADD1B2" rx="11" ry="11" style="stroke:#181818;stroke-width:1.0;"/><path d="M23.0094,75.5313 Q22.0875,75.5313 21.3531,75.8438 Q20.6344,76.1563 20.1344,76.75 Q19.6344,77.3281 19.3531,78.2031 Q19.0875,79.0781 19.0875,80.1719 Q19.0875,81.6094 19.525,82.6563 Q19.9781,83.7031 20.8219,84.25 Q21.6813,84.7969 22.9938,84.7969 Q23.775,84.7969 24.4625,84.6719 Q25.1656,84.5313 26.1656,84.2188 L26.1656,86.0938 Q25.3063,86.4219 24.5406,86.5469 Q23.7906,86.6719 22.775,86.6719 Q20.8531,86.6719 19.5406,85.875 Q18.2438,85.0625 17.5875,83.5938 Q16.9313,82.1094 16.9313,80.1406 Q16.9313,78.7188 17.3219,77.5469 Q17.7281,76.3594 18.5094,75.4844 Q19.2906,74.6094 20.4313,74.1406 Q21.5719,73.6563 23.0406,73.6563 Q23.9938,73.6563 24.8844,73.8594 Q25.7906,74.0469 26.7281,74.5156 L25.9,76.2969 Q25.1188,75.9219 24.4625,75.7344 Q23.8063,75.5313 23.0094,75.5313 Z " fill="#000000"/><text fill="#000000" font-family="sans-serif" font-size="14" lengthAdjust="spacing" textLength="60" x="37.1" y="85.432">Category</text><line style="stroke:#181818;stroke-width:0.5;" x1="8" x2="100" y1="96" y2="96"/><text fill="#000000" font-family="sans-serif" font-size="14" lengthAdjust="spacing" textLength="82" x="13" y="114.9659">name:string</text><line style="stroke:#181818;stroke-width:0.5;" x1="8" x2="100" y1="123.0679" y2="123.0679"/></g><!--class Post--><g id="elem_Post"><rect codeLine="19" fill="#FFF1D9" filter="url(#fuz8dtty81gd0)" height="86.1358" id="Post" rx="5" ry="5" style="stroke:#181818;stroke-width:0.5;" width="124" x="390" y="54.43"/><rect fill="#FFD080" height="32" rx="5" ry="5" style="stroke:#FFD080;stroke-width:0.5;" width="124" x="390" y="54.43"/><rect fill="#FFD080" height="5" style="stroke:#FFD080;stroke-width:0.5;" width="124" x="390" y="81.43"/><rect codeLine="19" fill="none" height="86.1358" id="Post" rx="5" ry="5" style="stroke:#181818;stroke-width:0.5;" width="124" x="390" y="54.43"/><ellipse cx="433.8" cy="70.43" fill="#ADD1B2" rx="11" ry="11" style="stroke:#181818;stroke-width:1.0;"/><path d="M433.9094,65.9613 Q432.9875,65.9613 432.2531,66.2738 Q431.5344,66.5863 431.0344,67.18 Q430.5344,67.7581 430.2531,68.6331 Q429.9875,69.5081 429.9875,70.6019 Q429.9875,72.0394 430.425,73.0863 Q430.8781,74.1331 431.7219,74.68 Q432.5813,75.2269 433.8938,75.2269 Q434.675,75.2269 435.3625,75.1019 Q436.0656,74.9613 437.0656,74.6488 L437.0656,76.5238 Q436.2063,76.8519 435.4406,76.9769 Q434.6906,77.1019 433.675,77.1019 Q431.7531,77.1019 430.4406,76.305 Q429.1438,75.4925 428.4875,74.0238 Q427.8313,72.5394 427.8313,70.5706 Q427.8313,69.1488 428.2219,67.9769 Q428.6281,66.7894 429.4094,65.9144 Q430.1906,65.0394 431.3313,64.5706 Q432.4719,64.0863 433.9406,64.0863 Q434.8938,64.0863 435.7844,64.2894 Q436.6906,64.4769 437.6281,64.9456 L436.8,66.7269 Q436.0188,66.3519 435.3625,66.1644 Q434.7063,65.9613 433.9094,65.9613 Z " fill="#000000"/><text fill="#000000" font-family="sans-serif" font-size="14" lengthAdjust="spacing" textLength="28" x="454.2" y="75.862">Post</text><line style="stroke:#181818;stroke-width:0.5;" x1="391" x2="513" y1="86.43" y2="86.43"/><text fill="#000000" font-family="sans-serif" font-size="14" lengthAdjust="spacing" textLength="93" x="396" y="105.3959">subject:string</text><text fill="#000000" font-family="sans-serif" font-size="14" lengthAdjust="spacing" textLength="112" x="396" y="124.4639">content:rich_text</text><line style="stroke:#181818;stroke-width:0.5;" x1="391" x2="513" y1="132.5658" y2="132.5658"/></g><!--class List--><g id="elem_List"><rect codeLine="24" fill="#FFF1D9" filter="url(#fuz8dtty81gd0)" height="67.0679" id="List" rx="5" ry="5" style="stroke:#181818;stroke-width:0.5;" width="94" x="7" y="307"/><rect fill="#FFD080" height="32" rx="5" ry="5" style="stroke:#FFD080;stroke-width:0.5;" width="94" x="7" y="307"/><rect fill="#FFD080" height="5" style="stroke:#FFD080;stroke-width:0.5;" width="94" x="7" y="334"/><rect codeLine="24" fill="none" height="67.0679" id="List" rx="5" ry="5" style="stroke:#181818;stroke-width:0.5;" width="94" x="7" y="307"/><ellipse cx="39.55" cy="323" fill="#ADD1B2" rx="11" ry="11" style="stroke:#181818;stroke-width:1.0;"/><path d="M39.6594,318.5313 Q38.7375,318.5313 38.0031,318.8438 Q37.2844,319.1563 36.7844,319.75 Q36.2844,320.3281 36.0031,321.2031 Q35.7375,322.0781 35.7375,323.1719 Q35.7375,324.6094 36.175,325.6563 Q36.6281,326.7031 37.4719,327.25 Q38.3313,327.7969 39.6438,327.7969 Q40.425,327.7969 41.1125,327.6719 Q41.8156,327.5313 42.8156,327.2188 L42.8156,329.0938 Q41.9563,329.4219 41.1906,329.5469 Q40.4406,329.6719 39.425,329.6719 Q37.5031,329.6719 36.1906,328.875 Q34.8938,328.0625 34.2375,326.5938 Q33.5813,325.1094 33.5813,323.1406 Q33.5813,321.7188 33.9719,320.5469 Q34.3781,319.3594 35.1594,318.4844 Q35.9406,317.6094 37.0813,317.1406 Q38.2219,316.6563 39.6906,316.6563 Q40.6438,316.6563 41.5344,316.8594 Q42.4406,317.0469 43.3781,317.5156 L42.55,319.2969 Q41.7688,318.9219 41.1125,318.7344 Q40.4563,318.5313 39.6594,318.5313 Z " fill="#000000"/><text fill="#000000" font-family="sans-serif" font-size="14" lengthAdjust="spacing" textLength="23" x="57.45" y="328.432">List</text><line style="stroke:#181818;stroke-width:0.5;" x1="8" x2="100" y1="339" y2="339"/><text fill="#000000" font-family="sans-serif" font-size="14" lengthAdjust="spacing" textLength="82" x="13" y="357.9659">name:string</text><line style="stroke:#181818;stroke-width:0.5;" x1="8" x2="100" y1="366.0679" y2="366.0679"/></g><!--class Task--><g id="elem_Task"><rect codeLine="28" fill="#FFF1D9" filter="url(#fuz8dtty81gd0)" height="105.2038" id="Task" rx="5" ry="5" style="stroke:#181818;stroke-width:0.5;" width="119" x="184.5" y="288"/><rect fill="#FFD080" height="32" rx="5" ry="5" style="stroke:#FFD080;stroke-width:0.5;" width="119" x="184.5" y="288"/><rect fill="#FFD080" height="5" style="stroke:#FFD080;stroke-width:0.5;" width="119" x="184.5" y="315"/><rect codeLine="28" fill="none" height="105.2038" id="Task" rx="5" ry="5" style="stroke:#181818;stroke-width:0.5;" width="119" x="184.5" y="288"/><ellipse cx="225.15" cy="304" fill="#ADD1B2" rx="11" ry="11" style="stroke:#181818;stroke-width:1.0;"/><path d="M225.2594,299.5313 Q224.3375,299.5313 223.6031,299.8438 Q222.8844,300.1563 222.3844,300.75 Q221.8844,301.3281 221.6031,302.2031 Q221.3375,303.0781 221.3375,304.1719 Q221.3375,305.6094 221.775,306.6563 Q222.2281,307.7031 223.0719,308.25 Q223.9313,308.7969 225.2438,308.7969 Q226.025,308.7969 226.7125,308.6719 Q227.4156,308.5313 228.4156,308.2188 L228.4156,310.0938 Q227.5563,310.4219 226.7906,310.5469 Q226.0406,310.6719 225.025,310.6719 Q223.1031,310.6719 221.7906,309.875 Q220.4938,309.0625 219.8375,307.5938 Q219.1813,306.1094 219.1813,304.1406 Q219.1813,302.7188 219.5719,301.5469 Q219.9781,300.3594 220.7594,299.4844 Q221.5406,298.6094 222.6813,298.1406 Q223.8219,297.6563 225.2906,297.6563 Q226.2438,297.6563 227.1344,297.8594 Q228.0406,298.0469 228.9781,298.5156 L228.15,300.2969 Q227.3688,299.9219 226.7125,299.7344 Q226.0563,299.5313 225.2594,299.5313 Z " fill="#000000"/><text fill="#000000" font-family="sans-serif" font-size="14" lengthAdjust="spacing" textLength="30" x="244.85" y="309.432">Task</text><line style="stroke:#181818;stroke-width:0.5;" x1="185.5" x2="302.5" y1="320" y2="320"/><text fill="#000000" font-family="sans-serif" font-size="14" lengthAdjust="spacing" textLength="93" x="190.5" y="338.9659">subject:string</text><text fill="#000000" font-family="sans-serif" font-size="14" lengthAdjust="spacing" textLength="107" x="190.5" y="358.0339">position:integer</text><text fill="#000000" font-family="sans-serif" font-size="14" lengthAdjust="spacing" textLength="97" x="190.5" y="377.1018">list:belongs_to</text><line style="stroke:#181818;stroke-width:0.5;" x1="185.5" x2="302.5" y1="385.2038" y2="385.2038"/></g><!--link Category to Person--><g id="link_Category_Person"><path codeLine="34" d="M100.84,97.5 C125.63,97.5 156.82,97.5 184.8,97.5 " fill="none" id="Category-Person" style="stroke:#181818;stroke-width:1.0;"/><text fill="#000000" font-family="sans-serif" font-size="13" lengthAdjust="spacing" textLength="7" x="108.7381" y="91.5848">1</text><text fill="#000000" font-family="sans-serif" font-size="13" lengthAdjust="spacing" textLength="7" x="169.4109" y="93.4799">*</text></g><!--link List to Task--><g id="link_List_Task"><path codeLine="35" d="M100.99,340.5 C126.21,340.5 157.73,340.5 184.67,340.5 " fill="none" id="List-Task" style="stroke:#181818;stroke-width:1.0;"/><text fill="#000000" font-family="sans-serif" font-size="13" lengthAdjust="spacing" textLength="7" x="108.9397" y="334.5848">1</text><text fill="#000000" font-family="sans-serif" font-size="13" lengthAdjust="spacing" textLength="7" x="169.6199" y="336.3401">*</text></g><!--link Category to List--><!--SRC=[RP0nJyGm38Nt_0hJ4QadiMPbPRY13Q5JcfhKqDfLx3jnGlntqb8kXtHB5BtdlFV59ZEOG2TcCa5F6QEHi7DtDk24a0EDEYTuoyNUxPoBOr25FMOLXYy7eEpLCd4gzqGdP0uJLkcecFyh7MKR-c3ebwC8aUnSxL00JkWxaH43BtQPIfBFliDHEEd1n7t_WJnkvefotNEPs8lQB-YnUo-_gqrHs93DPuh3mV3JwgCdsXxTZ7mE-d4xSXQbPN-UIdJ2NAInH5sXmn9peMuU6cYXkM-sZRgrkAfBKvrkNmRgU-JNTWLqFm00]--></g></svg>